HIERARCHY
ROOT root
{
	OFFSET 0.000000 0.000000 0.000000
	CHANNELS 6 Xposition Yposition Zposition Zrotation Yrotation Xrotation
	JOINT lhip
	{
		OFFSET 0.058581 -0.082280 -0.017664
		CHANNELS 3 Zrotation Yrotation Xrotation
		JOINT lknee
		{
			OFFSET 0.043451 -0.386469 0.008037
			CHANNELS 3 Zrotation Yrotation Xrotation
			JOINT lankle
			{
				OFFSET -0.014790 -0.426874 -0.037428
				CHANNELS 3 Zrotation Yrotation Xrotation
				JOINT ltoe
				{
					OFFSET 0.041054 -0.060286 0.122042
					CHANNELS 3 Zrotation Yrotation Xrotation
					End Site
					{
						OFFSET 0.000000 0.000000 0.000000
					}
				}
			}
		}
	}
	JOINT rhip
	{
		OFFSET -0.060310 -0.090513 -0.013543
		CHANNELS 3 Zrotation Yrotation Xrotation
		JOINT rknee
		{
			OFFSET -0.043257 -0.383688 -0.004843
			CHANNELS 3 Zrotation Yrotation Xrotation
			JOINT rankle
			{
				OFFSET 0.019056 -0.420046 -0.034562
				CHANNELS 3 Zrotation Yrotation Xrotation
				JOINT rtoe
				{
					OFFSET -0.034840 -0.062106 0.130323
					CHANNELS 3 Zrotation Yrotation Xrotation
					End Site
					{
						OFFSET 0.000000 0.000000 0.000000
					}
				}
			}
		}
	}
	JOINT lowerback
	{
		OFFSET 0.004439 0.124404 -0.038385
		CHANNELS 3 Zrotation Yrotation Xrotation
		JOINT upperback
		{
			OFFSET 0.004488 0.137956 0.026820
			CHANNELS 3 Zrotation Yrotation Xrotation
			JOINT chest
			{
				OFFSET -0.002265 0.056032 0.002855
				CHANNELS 3 Zrotation Yrotation Xrotation
				JOINT lowerneck
				{
					OFFSET -0.013390 0.211636 -0.033468
					CHANNELS 3 Zrotation Yrotation Xrotation
					JOINT upperneck
					{
						OFFSET 0.010113 0.088937 0.050410
						CHANNELS 3 Zrotation Yrotation Xrotation
						End Site
						{
							OFFSET 0.000000 0.000000 0.000000
						}
					}
				}
				JOINT lclavicle
				{
					OFFSET 0.071702 0.114000 -0.018898
					CHANNELS 3 Zrotation Yrotation Xrotation
					JOINT lshoulder
					{
						OFFSET 0.122921 0.045205 -0.019046
						CHANNELS 3 Zrotation Yrotation Xrotation
						JOINT lelbow
						{
							OFFSET 0.255332 -0.015649 -0.022946
							CHANNELS 3 Zrotation Yrotation Xrotation
							JOINT lwrist
							{
								OFFSET 0.265709 0.012698 -0.007375
								CHANNELS 3 Zrotation Yrotation Xrotation
								End Site
								{
									OFFSET 0.000000 0.000000 0.000000
								}
							}
						}
					}
				}
				JOINT rclavicle
				{
					OFFSET -0.082954 0.112472 -0.023707
					CHANNELS 3 Zrotation Yrotation Xrotation
					JOINT rshoulder
					{
						OFFSET -0.113228 0.046853 -0.008472
						CHANNELS 3 Zrotation Yrotation Xrotation
						JOINT relbow
						{
							OFFSET -0.260127 -0.014369 -0.031269
							CHANNELS 3 Zrotation Yrotation Xrotation
							JOINT rwrist
							{
								OFFSET -0.269108 0.006794 -0.006027
								CHANNELS 3 Zrotation Yrotation Xrotation
								End Site
								{
									OFFSET 0.000000 0.000000 0.000000
								}
							}
						}
					}
				}
			}
		}
	}
}
MOTION
Frames: 12
Frame Time: 0.033333
-0.221942 0.612543 0.946402 78.250090 -8.443914 100.826232 12.944384 -4.190730 -39.993746 -3.061540 4.930902 15.210460 -6.649329 11.347633 3.702961 0.000000 -0.000000 0.000000 -8.700900 -5.923579 7.840917 -6.495104 11.709879 42.857587 5.755891 -7.509205 13.172007 0.000000 -0.000000 0.000000 -2.505971 12.416796 8.720586 -2.848102 2.906111 -3.216863 -0.833747 4.043466 -3.324801 -6.394365 -7.270270 -14.619435 4.059624 -2.934839 -3.754755 -16.321249 14.638902 6.918393 -47.078394 25.567716 8.518558 -128.845810 -67.703649 149.475639 18.932224 -11.358594 -31.460606 15.011532 -1.041124 0.666057 55.332877 -1.151172 13.033473 -179.096926 63.515456 -161.468893 -17.444738 18.504229 -18.551530 
-0.121942 0.610689 0.935952 77.633681 -9.415274 99.893341 13.270079 -6.458519 -38.077397 -3.390608 1.766705 16.911129 -6.260212 11.919301 3.528239 0.000000 -0.000000 0.000000 -6.786352 -2.794017 6.804386 -6.090202 13.859921 53.929189 4.224703 -9.338896 11.131182 0.000000 -0.000000 0.000000 -4.304746 11.349574 8.524046 -2.480976 3.239937 -2.414253 -1.077684 4.224246 -3.238640 -5.188239 -6.438599 -14.593923 4.300441 -3.751027 -3.376702 -16.590510 14.921336 6.085165 -44.920920 24.810303 9.336932 -134.937814 -66.535161 155.484337 17.949006 -11.567984 -32.185807 16.280937 -1.259413 0.774715 56.245625 -2.802147 14.100879 -177.700267 66.178849 -160.286845 -16.704831 17.952044 -17.742384 
0.043825 0.607131 0.906335 77.487508 -11.161243 98.406583 12.834073 -11.741276 -32.842133 -5.805797 -1.744501 22.160779 -3.650969 13.793871 -6.336709 0.000000 -0.000000 0.000000 -3.835395 1.586314 1.623912 -2.219640 12.334385 75.826095 2.573069 -12.982991 5.612397 0.000000 -0.000000 0.000000 -6.769528 9.434285 8.043053 -1.590530 2.842988 -0.750115 -1.759110 3.292252 -3.016376 -3.589843 -4.734231 -13.609109 3.836584 -4.510140 -3.879361 -18.793291 14.018095 4.367593 -40.742987 20.508873 11.620250 -143.702587 -66.231076 163.867846 16.579496 -12.324899 -29.980776 19.686676 -2.420539 0.920413 57.206470 -6.710908 16.368166 -172.684501 75.173489 -156.201581 -14.917734 17.315243 -15.910423 
0.167663 0.603996 0.879119 78.288229 -12.735896 96.790214 9.229505 -11.973737 -29.171933 -10.231042 -2.237755 34.314989 2.785159 14.998245 -24.267219 0.000000 -0.000000 0.000000 -2.995397 3.361951 -6.740063 1.030478 7.119637 92.973730 2.452158 -14.770866 -1.986197 0.000000 -0.000000 0.000000 -8.560349 6.896336 11.640246 -1.074195 1.787212 -4.070587 -1.878728 1.514274 -0.488566 -2.237532 -3.777357 -16.006472 2.685456 -4.038516 -1.692996 -21.657463 12.675094 2.186970 -37.982008 14.335455 13.169305 -150.486433 -67.098233 170.397039 16.588563 -12.021596 -27.000575 22.743136 -4.272326 -0.947508 57.234942 -9.808835 18.592965 -145.779720 85.432448 -131.412728 -13.134831 16.920282 -13.841101 
0.281566 0.595536 0.861714 80.814251 -13.131225 95.240365 5.366321 -9.163822 -22.740278 -11.494495 -5.123777 39.406519 5.780449 15.794645 -33.732898 0.000000 -0.000000 0.000000 -2.690743 3.149241 -21.058687 1.655788 -0.565341 104.719175 2.815718 -14.783656 -8.463677 0.000000 -0.000000 0.000000 -9.483451 1.506810 16.316359 -0.416088 -0.015178 -4.649675 -1.782827 0.131221 -0.719636 -0.921251 -1.862925 -19.126393 1.829639 -3.092402 -1.491582 -24.459226 9.745948 0.720312 -37.922467 5.719171 12.910113 -162.416560 -69.073178 -178.364360 17.608158 -11.443449 -25.629563 25.526802 -4.415637 0.100329 57.973505 -11.223885 18.600920 -36.140477 80.695960 -23.272507 -16.568330 17.837425 -11.489057 
0.400288 0.582784 0.855206 81.653244 -11.464227 93.732723 4.039790 -6.479042 -11.248288 -10.592136 -10.509551 37.097575 5.127790 16.683668 -39.469181 0.000000 -0.000000 0.000000 -2.813410 2.681536 -35.971253 0.673529 -7.166385 106.704236 4.419284 -12.632604 -12.911045 0.000000 -0.000000 0.000000 -7.503581 -4.051758 20.576151 -0.348984 0.062700 -5.712819 -1.193636 -1.421536 -0.647293 -1.736099 -0.886850 -20.510813 1.672096 -0.922408 -2.179538 -25.676537 5.931583 -0.247743 -41.104691 -3.657310 11.407510 -178.622864 -68.370566 -161.969150 18.156977 -12.332647 -23.197221 24.718230 -5.528223 1.166477 57.155944 -15.742100 17.260604 -29.160286 81.692812 -17.800253 -19.831433 17.255423 -17.021486 
0.522645 0.562969 0.858728 82.836699 -9.192082 93.615308 4.742424 -3.999266 0.137136 -8.587086 -16.799568 31.598451 1.669162 16.576180 -38.428950 0.000000 -0.000000 0.000000 -3.665002 1.339900 -48.810844 0.149027 -12.920316 98.912298 6.089672 -8.934673 -16.777234 0.000000 -0.000000 0.000000 -4.895292 -9.279192 21.997108 -0.039133 0.142895 -7.444115 -0.234931 -3.312654 0.634804 -2.566201 -0.193133 -20.755328 2.036842 1.618711 -2.089353 -24.858783 4.303590 -1.985334 -47.059756 -12.993954 11.292500 169.925220 -64.714282 -150.480470 18.513134 -12.762142 -23.957781 21.734404 -8.886029 1.298417 53.675127 -19.883225 16.442088 42.177409 87.649242 55.715549 -17.332635 18.394195 -18.336303 
0.647969 0.534419 0.871920 82.158699 -7.131494 95.658758 7.128343 -2.665093 9.077060 -7.241487 -19.716392 25.588787 -4.371907 14.309226 -28.158877 0.000000 -0.000000 0.000000 -5.388480 1.970799 -58.002551 -0.151491 -17.577110 82.557928 6.725049 -7.603392 -18.230708 0.000000 -0.000000 0.000000 -2.707419 -13.318252 20.246729 0.528327 0.382021 -6.928226 0.419678 -4.101161 0.220377 -2.914286 1.993982 -20.865851 2.005977 2.832797 -1.874372 -24.299921 4.574959 -3.266428 -52.089290 -19.541845 13.401936 166.910943 -59.667299 -147.506695 19.296174 -13.107147 -27.613794 19.798099 -11.405776 3.407088 51.421464 -20.856016 15.671579 105.532643 85.751067 121.179615 -16.402397 18.635707 -19.538531 
0.776350 0.499234 0.889651 79.713430 -5.987106 98.125399 9.061617 -0.028281 15.307502 -5.851653 -19.812349 19.895037 -9.798362 12.449723 -6.805978 0.000000 -0.000000 0.000000 -6.844272 2.969963 -61.576723 -0.467154 -20.984648 60.897587 7.045358 -7.461751 -15.980507 0.000000 -0.000000 0.000000 -1.308330 -15.661307 18.284116 0.668318 1.072116 -5.944514 0.594699 -3.782911 -0.815076 -3.343269 4.759262 -21.868091 1.705277 2.328205 -1.247618 -24.050190 5.638876 -3.862276 -54.965022 -21.684960 16.769659 168.990759 -57.025763 -148.651011 19.824532 -13.840797 -29.651189 19.528323 -12.629741 5.239484 52.648529 -19.826830 14.438003 93.132271 86.995323 109.824647 -16.111966 17.914282 -19.538996 
0.909137 0.465917 0.903127 77.634120 -6.863198 99.179157 6.457389 0.952834 19.597980 -3.831099 -20.903702 18.928093 -4.967567 12.980955 6.911353 0.000000 -0.000000 0.000000 -5.968328 1.387580 -60.222982 -0.583839 -20.523062 41.468039 5.278951 -11.736049 -6.539646 0.000000 -0.000000 0.000000 -0.515178 -16.770262 18.025322 -0.654286 1.097941 -7.269830 0.673449 -3.445789 -0.838686 -4.969843 1.254379 -20.768341 3.734402 6.544711 -2.255834 -23.697367 6.821332 -2.679285 -55.643534 -20.363927 17.843364 175.660714 -58.294335 -154.700827 20.376722 -11.972627 -32.834528 18.354008 -11.980897 5.922716 56.995204 -18.350525 13.874859 -6.777887 86.627170 9.389507 -15.643846 17.845999 -15.407475 
1.040884 0.431393 0.905642 76.068283 -7.794661 98.914657 2.896934 -0.071972 18.786897 -4.264821 -15.611526 31.307733 -2.548201 16.105297 2.386742 0.000000 -0.000000 0.000000 -4.572270 -0.427767 -57.497644 -2.118102 -21.794990 34.212416 6.590574 -13.077342 -2.277011 0.000000 -0.000000 0.000000 0.321767 -14.702812 18.300100 -1.085733 0.610353 -7.635361 -0.015563 -3.562405 -0.144227 -5.512244 0.721258 -20.991493 2.886077 6.467786 -2.414036 -23.982263 6.602805 -1.924612 -55.186100 -17.455873 18.570803 -177.375886 -64.111532 -160.585668 19.325465 -12.322586 -30.285033 20.151549 -11.057873 4.362086 58.485829 -16.031924 13.846076 -30.072640 81.974624 -14.593661 -15.720739 17.431791 -14.025897 
1.171548 0.395997 0.895016 73.876329 -8.048359 98.405528 1.289662 0.128454 14.942329 -6.413880 -12.014412 46.832094 0.108835 14.123047 1.297375 0.000000 -0.000000 0.000000 -3.320322 -0.614432 -54.832685 -0.291601 -19.725679 38.806749 -0.295791 -11.818900 -1.789714 0.000000 -0.000000 0.000000 0.895237 -11.721429 18.916503 -0.838116 1.455165 -7.067058 -0.633891 -3.618924 -0.125201 -5.905144 0.944448 -21.275581 1.343321 4.763147 -2.054347 -25.199230 5.904425 -0.995546 -54.671413 -13.501335 18.891604 -169.450166 -72.666908 -169.601739 17.868601 -11.646979 -28.545497 23.283895 -8.651508 2.822160 57.591847 -12.888174 13.916417 -36.893902 77.001420 -22.843224 -15.452136 16.497286 -14.347901 
